# xmcd
#
# Track frame offsets:
#	150
#	14536
#	29194
#	45684
#	60228
#	77858
#	100426
#	114420
#	128886
#	144984
#	159369
#	174779
#	187150
#	202021
#
# Disc length: 2980 seconds
#
# Revision: 1
# Processed by: cddbd v1.5.2PL0 Copyright (c) Steve Scherf et al.
# Submitted via: audiograbber 1.83.01
#
DISCID=c00ba20e
DTITLE=PBS 106.7 FM Roots Collector Series 2007 - The Blues Train
DYEAR=2007
DGENRE=
TTITLE0=Jaimi Faulkner - Reference Tone
TTITLE1=Stevie Paige - The Best of Me
TTITLE2=Geoff Achison and The Souldiggers - Feel Like a King
TTITLE3=George Kamikawa - Sake Blues
TTITLE4=Sweet Felicia and The Honeytones - Big Strong Women
TTITLE5=Mojo Web - A Man Like Me
TTITLE6=Anni Piper - Come In My Kitchen
TTITLE7=Lil' Fi - Get A Room
TTITLE8=Shannon Bourne - Dead End Town
TTITLE9=Dallas Frasca - Learn Your Routes
TTITLE10=Zevon Hiltz - Thoughts Into Your Mind
TTITLE11=Alex Burns - Jelly Roll Baker
TTITLE12=C. W. Stoneking - Goin' The Country
TTITLE13=Stringybark McDowell - The Blues Train Song
EXTD=
EXTT0=
EXTT1=
EXTT2=
EXTT3=
EXTT4=
EXTT5=
EXTT6=
EXTT7=
EXTT8=
EXTT9=
EXTT10=
EXTT11=
EXTT12=
EXTT13=
PLAYORDER=
